%TF.GenerationSoftware,KiCad,Pcbnew,8.0.6-8.0.6-0~ubuntu24.04.1*%
%TF.CreationDate,2024-11-25T21:20:04+00:00*%
%TF.ProjectId,gps_tracker,6770735f-7472-4616-936b-65722e6b6963,rev?*%
%TF.SameCoordinates,Original*%
%TF.FileFunction,Copper,L1,Top*%
%TF.FilePolarity,Positive*%
%FSLAX46Y46*%
G04 Gerber Fmt 4.6, Leading zero omitted, Abs format (unit mm)*
G04 Created by KiCad (PCBNEW 8.0.6-8.0.6-0~ubuntu24.04.1) date 2024-11-25 21:20:04*
%MOMM*%
%LPD*%
G01*
G04 APERTURE LIST*
%TA.AperFunction,ComponentPad*%
%ADD10C,1.000000*%
%TD*%
%TA.AperFunction,SMDPad,CuDef*%
%ADD11O,2.500000X0.700000*%
%TD*%
%TA.AperFunction,SMDPad,CuDef*%
%ADD12O,0.700000X2.500000*%
%TD*%
%TA.AperFunction,SMDPad,CuDef*%
%ADD13R,1.000000X1.000000*%
%TD*%
%TA.AperFunction,ViaPad*%
%ADD14C,0.600000*%
%TD*%
%TA.AperFunction,Conductor*%
%ADD15C,0.200000*%
%TD*%
G04 APERTURE END LIST*
D10*
%TO.P,TP6,1,1*%
%TO.N,+1V8*%
X135900000Y-105800000D03*
%TD*%
%TO.P,TP9,1,1*%
%TO.N,ST_UART2_RX*%
X135900000Y-101100000D03*
%TD*%
%TO.P,TP8,1,1*%
%TO.N,ST_UART2_TX*%
X135900000Y-103200000D03*
%TD*%
%TO.P,TP7,1,1*%
%TO.N,ST_UART1_RX*%
X135900000Y-94800000D03*
%TD*%
%TO.P,TP3,1,1*%
%TO.N,ST_UART1_TX*%
X135900000Y-92700000D03*
%TD*%
%TO.P,TP5,1,1*%
%TO.N,Net-(U1-PA13)*%
X135900000Y-99000000D03*
%TD*%
%TO.P,TP4,1,1*%
%TO.N,Net-(U1-PA14)*%
X135900000Y-96900000D03*
%TD*%
%TO.P,TP1,1,1*%
%TO.N,Net-(U3-EN)*%
X135900000Y-107900000D03*
%TD*%
D11*
%TO.P,U4,1,GND*%
%TO.N,GND*%
X140950000Y-96200000D03*
%TO.P,U4,2,RESERVED*%
%TO.N,unconnected-(U4-RESERVED-Pad2)*%
X140950000Y-97300000D03*
%TO.P,U4,3,RESERVED*%
%TO.N,unconnected-(U4-RESERVED-Pad3)*%
X140950000Y-98400000D03*
%TO.P,U4,4,RESERVED*%
%TO.N,unconnected-(U4-RESERVED-Pad4)*%
X140950000Y-99500000D03*
%TO.P,U4,5,RESERVED*%
%TO.N,unconnected-(U4-RESERVED-Pad5)*%
X140950000Y-100600000D03*
%TO.P,U4,6,RESERVED*%
%TO.N,unconnected-(U4-RESERVED-Pad6)*%
X140950000Y-101700000D03*
%TO.P,U4,7,PWRKEY*%
%TO.N,PWRKEY*%
X140950000Y-102800000D03*
%TO.P,U4,8,RESERVED*%
%TO.N,unconnected-(U4-RESERVED-Pad8)*%
X140950000Y-103900000D03*
%TO.P,U4,9,ADC*%
%TO.N,unconnected-(U4-ADC-Pad9)*%
X140950000Y-105000000D03*
%TO.P,U4,10,GND*%
%TO.N,GND*%
X140950000Y-106100000D03*
%TO.P,U4,11,USIM_DATA*%
%TO.N,Net-(U4-USIM_DATA)*%
X140950000Y-107200000D03*
%TO.P,U4,12,USIM_RST*%
%TO.N,ST_UART2_RX*%
X140950000Y-108300000D03*
%TO.P,U4,13,USIM_CLK*%
%TO.N,Net-(U4-USIM_CLK)*%
X140950000Y-109400000D03*
D12*
%TO.P,U4,14,USIM_VDD*%
%TO.N,Net-(IC1-VCC)*%
X144200000Y-111400000D03*
%TO.P,U4,15,RESET_N*%
%TO.N,+1V8*%
X145300000Y-111400000D03*
%TO.P,U4,16,NETLIGHT*%
%TO.N,unconnected-(U4-NETLIGHT-Pad16)*%
X146400000Y-111400000D03*
%TO.P,U4,17,MAIN_TXD*%
%TO.N,ST_UART2_RX*%
X147500000Y-111400000D03*
%TO.P,U4,18,MAIN_RXD*%
%TO.N,ST_UART2_TX*%
X148600000Y-111400000D03*
%TO.P,U4,19,PSM_EINT*%
%TO.N,PSM_INT*%
X149700000Y-111400000D03*
%TO.P,U4,20,RI*%
%TO.N,unconnected-(U4-RI-Pad20)*%
X150800000Y-111400000D03*
%TO.P,U4,21,RESERVED*%
%TO.N,unconnected-(U4-RESERVED-Pad21)*%
X151900000Y-111400000D03*
%TO.P,U4,22,RESERVED*%
%TO.N,unconnected-(U4-RESERVED-Pad22)*%
X153000000Y-111400000D03*
D11*
%TO.P,U4,23,RESERVED*%
%TO.N,unconnected-(U4-RESERVED-Pad23)*%
X156250000Y-109400000D03*
%TO.P,U4,24,VDD_EXT*%
%TO.N,unconnected-(U4-VDD_EXT-Pad24)*%
X156250000Y-108300000D03*
%TO.P,U4,25,RESERVED*%
%TO.N,unconnected-(U4-RESERVED-Pad25)*%
X156250000Y-107200000D03*
%TO.P,U4,26,RESERVED*%
%TO.N,unconnected-(U4-RESERVED-Pad26)*%
X156250000Y-106100000D03*
%TO.P,U4,27,GND*%
%TO.N,GND*%
X156250000Y-105000000D03*
%TO.P,U4,28,AUX_RXD*%
%TO.N,unconnected-(U4-AUX_RXD-Pad28)*%
X156250000Y-103900000D03*
%TO.P,U4,29,AUX_TXD*%
%TO.N,unconnected-(U4-AUX_TXD-Pad29)*%
X156250000Y-102800000D03*
%TO.P,U4,30,RESERVED*%
%TO.N,unconnected-(U4-RESERVED-Pad30)*%
X156250000Y-101700000D03*
%TO.P,U4,31,RESERVED*%
%TO.N,unconnected-(U4-RESERVED-Pad31)*%
X156250000Y-100600000D03*
%TO.P,U4,32,RESERVED*%
%TO.N,unconnected-(U4-RESERVED-Pad32)*%
X156250000Y-99500000D03*
%TO.P,U4,33,RESERVED*%
%TO.N,unconnected-(U4-RESERVED-Pad33)*%
X156250000Y-98400000D03*
%TO.P,U4,34,GND*%
%TO.N,GND*%
X156250000Y-97300000D03*
%TO.P,U4,35,RF_ANT*%
%TO.N,LTE_RF_IN*%
X156250000Y-96200000D03*
D12*
%TO.P,U4,36,GND*%
%TO.N,GND*%
X153000000Y-94200000D03*
%TO.P,U4,37,GND*%
X151900000Y-94200000D03*
%TO.P,U4,38,DBG_RXD*%
%TO.N,unconnected-(U4-DBG_RXD-Pad38)*%
X150800000Y-94200000D03*
%TO.P,U4,39,DBG_TXD*%
%TO.N,unconnected-(U4-DBG_TXD-Pad39)*%
X149700000Y-94200000D03*
%TO.P,U4,40,GND*%
%TO.N,GND*%
X148600000Y-94200000D03*
%TO.P,U4,41,GND*%
X147500000Y-94200000D03*
%TO.P,U4,42,VBAT*%
%TO.N,+3V8*%
X146400000Y-94200000D03*
%TO.P,U4,43,VBAT*%
X145300000Y-94200000D03*
%TO.P,U4,44,RESERVED*%
%TO.N,unconnected-(U4-RESERVED-Pad44)*%
X144200000Y-94200000D03*
D13*
%TO.P,U4,45,RESERVED*%
%TO.N,unconnected-(U4-RESERVED-Pad45)*%
X145000000Y-100100000D03*
%TO.P,U4,46,RESERVED*%
%TO.N,unconnected-(U4-RESERVED-Pad46)*%
X145000000Y-101900000D03*
%TO.P,U4,47,RESERVED*%
%TO.N,unconnected-(U4-RESERVED-Pad47)*%
X145000000Y-103700000D03*
%TO.P,U4,48,RESERVED*%
%TO.N,unconnected-(U4-RESERVED-Pad48)*%
X145000000Y-105500000D03*
%TO.P,U4,49,RESERVED*%
%TO.N,unconnected-(U4-RESERVED-Pad49)*%
X146800000Y-107300000D03*
%TO.P,U4,50,RESERVED*%
%TO.N,unconnected-(U4-RESERVED-Pad50)*%
X148600000Y-107300000D03*
%TO.P,U4,51,RESERVED*%
%TO.N,unconnected-(U4-RESERVED-Pad51)*%
X150400000Y-107300000D03*
%TO.P,U4,52,RESERVED*%
%TO.N,unconnected-(U4-RESERVED-Pad52)*%
X152200000Y-105500000D03*
%TO.P,U4,53,RESERVED*%
%TO.N,unconnected-(U4-RESERVED-Pad53)*%
X152200000Y-103700000D03*
%TO.P,U4,54,RESERVED*%
%TO.N,unconnected-(U4-RESERVED-Pad54)*%
X152200000Y-101900000D03*
%TO.P,U4,55,RESERVED*%
%TO.N,unconnected-(U4-RESERVED-Pad55)*%
X152200000Y-100100000D03*
%TO.P,U4,56,RESERVED*%
%TO.N,unconnected-(U4-RESERVED-Pad56)*%
X150400000Y-98300000D03*
%TO.P,U4,57,RESERVED*%
%TO.N,unconnected-(U4-RESERVED-Pad57)*%
X148600000Y-98300000D03*
%TO.P,U4,58,RESERVED*%
%TO.N,unconnected-(U4-RESERVED-Pad58)*%
X146800000Y-98300000D03*
%TD*%
D14*
%TO.N,ST_UART2_TX*%
X142300000Y-114210345D03*
%TO.N,ST_UART2_RX*%
X140600000Y-112400000D03*
%TO.N,ST_UART2_TX*%
X141200000Y-114500000D03*
%TO.N,ST_UART2_RX*%
X141161816Y-113610345D03*
%TO.N,LTE_RF_IN*%
X154500000Y-97000000D03*
%TO.N,PSM_INT*%
X149700000Y-111400000D03*
%TO.N,PWRKEY*%
X141000000Y-102800000D03*
%TO.N,Net-(U4-USIM_DATA)*%
X139395330Y-108857867D03*
%TO.N,Net-(U4-USIM_CLK)*%
X140900000Y-109400000D03*
%TO.N,ST_UART2_RX*%
X142600000Y-108300000D03*
%TO.N,Net-(IC1-VCC)*%
X144200000Y-110700000D03*
%TO.N,GND*%
X140900000Y-96200000D03*
X147500000Y-94200000D03*
X148600000Y-94200000D03*
X151900000Y-94200000D03*
X153000000Y-94200000D03*
X156200000Y-97300000D03*
X156300000Y-105000000D03*
X140950000Y-106100000D03*
%TO.N,+1V8*%
X145300000Y-111400000D03*
%TO.N,ST_UART1_TX*%
X137400000Y-93600000D03*
%TO.N,ST_UART1_RX*%
X137400000Y-95800000D03*
%TO.N,+1V8*%
X135900000Y-104500000D03*
%TD*%
D15*
%TO.N,ST_UART2_RX*%
X146189655Y-113610345D02*
X142500000Y-113610345D01*
X142500000Y-113610345D02*
X141161816Y-113610345D01*
X140600000Y-112400000D02*
X141289655Y-112400000D01*
X141289655Y-112400000D02*
X142500000Y-113610345D01*
%TO.N,ST_UART2_TX*%
X141200000Y-114500000D02*
X141446247Y-114253753D01*
X141446247Y-114253753D02*
X146646247Y-114253753D01*
X146646247Y-114253753D02*
X148600000Y-112300000D01*
X148600000Y-112300000D02*
X148600000Y-111400000D01*
%TO.N,ST_UART2_RX*%
X147500000Y-112300000D02*
X146189655Y-113610345D01*
X147500000Y-111400000D02*
X147500000Y-112300000D01*
%TO.N,LTE_RF_IN*%
X155300000Y-96200000D02*
X154500000Y-97000000D01*
X156250000Y-96200000D02*
X155300000Y-96200000D01*
%TO.N,Net-(U4-USIM_DATA)*%
X139395330Y-108857867D02*
X139395330Y-108035431D01*
X139395330Y-108035431D02*
X140230761Y-107200000D01*
X140230761Y-107200000D02*
X140950000Y-107200000D01*
%TO.N,ST_UART2_RX*%
X142600000Y-108300000D02*
X140950000Y-108300000D01*
%TO.N,Net-(IC1-VCC)*%
X144200000Y-110700000D02*
X144200000Y-111400000D01*
%TO.N,GND*%
X140950000Y-96200000D02*
X140900000Y-96200000D01*
X156250000Y-97300000D02*
X156200000Y-97300000D01*
X156250000Y-105000000D02*
X156300000Y-105000000D01*
%TD*%
M02*
